<?xml version="1.0" encoding="UTF-8"?>
<svg width="36px" height="40px" viewBox="0 0 36 40" version="1.1" xmlns="http://www.w3.org/2000/svg" xmlns:xlink="http://www.w3.org/1999/xlink">
    <title>ic-healthcare</title>
    <g id="Page-1" stroke="none" stroke-width="1" fill="none" fill-rule="evenodd">
        <g id="Desktop" transform="translate(-494.000000, -2669.000000)" stroke="#F2C158" stroke-width="2">
            <g id="Group-29" transform="translate(42.000000, 2448.000000)">
                <g id="Group-18" transform="translate(320.000000, 180.000000)">
                    <g id="Group-16" transform="translate(0.000000, 41.000000)">
                        <path d="M149.507298,1.06371978 C151.580697,3.55281313 154.601251,4.97684494 157.822291,4.97684494 C160.070093,4.97684494 162.272634,4.30932114 164.791948,2.78891134 L164.791948,2.78891134 L165.974468,26.4624306 C165.561381,27.5933092 162.323413,35.3061565 149.72553,38.9308706 C136.638841,35.2783557 133.407598,27.4783752 133.029815,26.4381817 L133.029815,26.4381817 L133.001658,3.0636397 C136.61218,4.23805666 138.872841,4.97684494 141.192115,4.97684494 C144.41408,4.97684494 147.435378,3.55194334 149.507298,1.06371978 Z M153.008232,10.6600062 L146.006174,10.6600062 L146.006174,15.6620643 L141.004116,15.6620643 L141.004116,22.6641224 L146.006174,22.6641224 L146.006174,27.6661805 L153.008232,27.6661805 L153.008232,22.6641224 L158.01029,22.6641224 L158.01029,15.6620643 L153.008232,15.6620643 L153.008232,10.6600062 Z" id="ic-healthcare"></path>
                    </g>
                </g>
            </g>
        </g>
    </g>
</svg>