<?xml version="1.0" encoding="UTF-8"?>
<svg width="40px" height="40px" viewBox="0 0 40 40" version="1.1" xmlns="http://www.w3.org/2000/svg" xmlns:xlink="http://www.w3.org/1999/xlink">
    <title>ic-industrial</title>
    <g id="Page-1" stroke="none" stroke-width="1" fill="none" fill-rule="evenodd">
        <g id="Desktop" transform="translate(-812.000000, -2669.000000)" stroke-width="2">
            <g id="Group-29" transform="translate(42.000000, 2448.000000)">
                <g id="Group-15" transform="translate(640.000000, 180.000000)">
                    <g id="Group-12" transform="translate(0.000000, 42.000000)">
                        <g id="ic-industrial" transform="translate(130.000000, 0.000000)">
                            <path d="M8.33383333,30.7311836 C7.46092876,30.7311836 6.66937546,31.08673 6.09594626,31.6601592 C5.52273708,32.2333684 5.16716667,33.024655 5.16716667,33.8978503 C5.16716667,34.7710456 5.52273708,35.5623322 6.09594626,36.1355414 C6.66937546,36.7089706 7.46092876,37.0645169 8.33383333,37.0645169 C9.20673791,37.0645169 9.99829121,36.7089706 10.5717204,36.1355414 C11.1449296,35.5623322 11.5005,34.7710456 11.5005,33.8978503 C11.5005,33.024655 11.1449296,32.2333684 10.5717204,31.6601592 C9.99829121,31.08673 9.20673791,30.7311836 8.33383333,30.7311836 Z" id="Fill-2099" stroke="#F2C158"></path>
                            <path d="M31.6671667,30.7311836 C30.7942621,30.7311836 30.0027088,31.08673 29.4292796,31.6601592 C28.8560704,32.2333684 28.5005,33.024655 28.5005,33.8978503 C28.5005,34.7710456 28.8560704,35.5623322 29.4292796,36.1355414 C30.0027088,36.7089706 30.7942621,37.0645169 31.6671667,37.0645169 C32.5400712,37.0645169 33.3316245,36.7089706 33.9050537,36.1355414 C34.4782629,35.5623322 34.8338333,34.7710456 34.8338333,33.8978503 C34.8338333,33.024655 34.4782629,32.2333684 33.9050537,31.6601592 C33.3316245,31.08673 32.5400712,30.7311836 31.6671667,30.7311836 Z" id="Fill-2100" stroke="#F2C158"></path>
                            <path d="M19.0005,19.0645169 L17.6671667,19.0645169 L17.6671667,28.7311836 L19.0005,28.7311836 L19.0005,19.0645169 Z" id="Fill-2101" stroke="#F2C158"></path>
                            <path d="M22.6668333,15.7320169 L22.6668333,28.7320169 L27.2086709,28.7320169 C28.4061449,27.6940266 29.9625705,27.0653503 31.6668333,27.0653503 C33.371015,27.0653503 34.9289636,27.6940817 36.1266276,28.7320169 L38.9985,28.7320169 L38.9985,15.7320169 L22.6668333,15.7320169 Z" id="Fill-2102" stroke="#F2C158"></path>
                            <path d="M8.37129401,15.8383663 L4.30118195,23.1665486 L1,26.4677305 L1,28.7318503 L3.87513517,28.7318503 C5.15732721,27.6197492 6.74557262,27.0649752 8.33334177,27.0649752 C9.92157809,27.0649752 11.5104302,27.6201153 12.7930015,28.7318503 L14,28.7318503 L14,15.735077 L8.37129401,15.8383663 Z" id="Path" stroke="#F2C158"></path>
                            <line x1="36.5" y1="15.5" x2="2.5" y2="0.5" id="Line-2" stroke="#F4C35A" stroke-linecap="round"></line>
                            <path d="M14.9991001,32.3978503 C15.1065546,32.8515737 15.155654,33.2912561 15.1586412,33.7311836 L24.8431146,33.7311836 C24.8460301,33.2916806 24.8947338,32.8519174 25.0018422,32.3978503 L14.9991001,32.3978503 Z" id="Fill-2104" stroke="#F2C158"></path>
                            <path d="M1.00066667,32.3978503 L1.00066667,33.7311836 L1.50978131,33.7311836 C1.51269679,33.2916806 1.56140049,32.8519174 1.66850886,32.3978503 L1.00066667,32.3978503 Z" id="Fill-2105" stroke="#F2C158"></path>
                            <path d="M38.9995,32.3978503 L38.3325243,32.3978503 C38.4397774,32.8515649 38.4886861,33.2912417 38.4917117,33.7311836 L38.9995,33.7311836 L38.9995,32.3978503 Z" id="Fill-2106" stroke="#F2C158"></path>
                        </g>
                    </g>
                </g>
            </g>
        </g>
    </g>
</svg>