<?xml version="1.0" encoding="UTF-8"?>
<svg width="48px" height="40px" viewBox="0 0 48 40" version="1.1" xmlns="http://www.w3.org/2000/svg" xmlns:xlink="http://www.w3.org/1999/xlink">
    <title>ic-shopping</title>
    <g id="Page-1" stroke="none" stroke-width="1" fill="none" fill-rule="evenodd">
        <g id="Desktop" transform="translate(-168.000000, -2489.000000)" stroke-width="2">
            <g id="Group-29" transform="translate(42.000000, 2448.000000)">
                <g id="Group-28">
                    <g id="Group-19" transform="translate(0.000000, 41.000000)">
                        <g id="ic-shopping" transform="translate(126.000000, 0.000000)">
                            <path d="M11.7681992,32.372549 C10.9622442,32.372549 10.2323789,32.7005237 9.7037224,33.2291802 C9.17455629,33.7583463 8.84663056,34.4888283 8.84663056,35.2941176 C8.84663056,36.1004706 9.17398036,36.8307833 9.70275695,37.3595599 C10.2315335,37.8883365 10.9618462,38.2156863 11.7681992,38.2156863 C12.5734886,38.2156863 13.3039705,37.8877605 13.8331366,37.3585944 C14.3617931,36.829938 14.6897678,36.1000727 14.6897678,35.2941176 C14.6897678,34.4892255 14.3612165,33.7591916 13.8321708,33.230146 C13.3031252,32.7011004 12.5730913,32.372549 11.7681992,32.372549 Z" id="Fill-452" stroke="#F2C158"></path>
                            <path d="M33.3368266,32.372549 C32.5308716,32.372549 31.8010063,32.7005237 31.2723498,33.2291802 C30.7431837,33.7583463 30.415258,34.4888283 30.415258,35.2941176 C30.415258,36.1004706 30.7426078,36.8307833 31.2713844,37.3595599 C31.800161,37.8883365 32.5304737,38.2156863 33.3368266,38.2156863 C34.142116,38.2156863 34.872598,37.8877605 35.4017641,37.3585944 C35.9304205,36.829938 36.2583953,36.1000727 36.2583953,35.2941176 C36.2583953,34.4892255 35.9298439,33.7591916 35.4007983,33.230146 C34.8717527,32.7011004 34.1417188,32.372549 33.3368266,32.372549 Z" id="Fill-453" stroke="#F2C158"></path>
                            <path d="M37.2637254,26.2324322 L39.2559744,8.51795849 C38.5212801,8.68009907 37.7238362,8.84313725 37.487807,8.84313725 L3.92506193,8.84313725 C2.9390073,8.84313725 2.09601565,9.32309919 1.57199527,10.035701 C1.04698672,10.7496467 0.841123906,11.6979174 1.13569874,12.6328087 L4.19917692,22.4390669 C4.39064544,23.0529351 4.76555497,23.5663363 5.25449746,23.9257475 C5.74364417,24.2853087 6.3461421,24.4901961 6.98976781,24.4901961 L35.297611,24.4901961 C35.8422188,24.4901961 36.3379537,24.7119135 36.6971197,25.0710795 C37.003164,25.3771238 37.2094111,25.7823267 37.2637254,26.2324322 Z" id="Fill-454" stroke="#F2C158"></path>
                            <line x1="46.5" y1="1" x2="40" y2="1" id="Line-3" stroke="#F4C35A" stroke-linecap="round"></line>
                            <line x1="40" y1="1.5" x2="37.5" y2="25" id="Line-4" stroke="#F4C35A" stroke-linecap="round"></line>
                        </g>
                    </g>
                </g>
            </g>
        </g>
    </g>
</svg>