<?xml version="1.0" standalone="no"?>
<svg xmlns="http://www.w3.org/2000/svg" width="300" height="300"><defs><clipPath id="clip-path-dot-color"><rect x="2" y="66" width="8" height="8" transform="rotate(0,6,70)"/><rect x="2" y="74" width="8" height="8" transform="rotate(0,6,78)"/><rect x="2" y="98" width="8" height="8" transform="rotate(0,6,102)"/><rect x="2" y="106" width="8" height="8" transform="rotate(0,6,110)"/><rect x="2" y="114" width="8" height="8" transform="rotate(0,6,118)"/><rect x="2" y="146" width="8" height="8" transform="rotate(0,6,150)"/><rect x="2" y="154" width="8" height="8" transform="rotate(0,6,158)"/><rect x="2" y="162" width="8" height="8" transform="rotate(0,6,166)"/><rect x="2" y="170" width="8" height="8" transform="rotate(0,6,174)"/><rect x="2" y="194" width="8" height="8" transform="rotate(0,6,198)"/><rect x="2" y="210" width="8" height="8" transform="rotate(0,6,214)"/><rect x="2" y="218" width="8" height="8" transform="rotate(0,6,222)"/><rect x="2" y="226" width="8" height="8" transform="rotate(0,6,230)"/><rect x="10" y="66" width="8" height="8" transform="rotate(0,14,70)"/><rect x="10" y="74" width="8" height="8" transform="rotate(0,14,78)"/><rect x="10" y="90" width="8" height="8" transform="rotate(0,14,94)"/><rect x="10" y="98" width="8" height="8" transform="rotate(0,14,102)"/><rect x="10" y="106" width="8" height="8" transform="rotate(0,14,110)"/><rect x="10" y="114" width="8" height="8" transform="rotate(0,14,118)"/><rect x="10" y="130" width="8" height="8" transform="rotate(0,14,134)"/><rect x="10" y="154" width="8" height="8" transform="rotate(0,14,158)"/><rect x="10" y="170" width="8" height="8" transform="rotate(0,14,174)"/><rect x="10" y="178" width="8" height="8" transform="rotate(0,14,182)"/><rect x="10" y="186" width="8" height="8" transform="rotate(0,14,190)"/><rect x="10" y="194" width="8" height="8" transform="rotate(0,14,198)"/><rect x="10" y="210" width="8" height="8" transform="rotate(0,14,214)"/><rect x="10" y="218" width="8" height="8" transform="rotate(0,14,222)"/><rect x="18" y="66" width="8" height="8" transform="rotate(0,22,70)"/><rect x="18" y="74" width="8" height="8" transform="rotate(0,22,78)"/><rect x="18" y="82" width="8" height="8" transform="rotate(0,22,86)"/><rect x="18" y="90" width="8" height="8" transform="rotate(0,22,94)"/><rect x="18" y="138" width="8" height="8" transform="rotate(0,22,142)"/><rect x="18" y="146" width="8" height="8" transform="rotate(0,22,150)"/><rect x="18" y="178" width="8" height="8" transform="rotate(0,22,182)"/><rect x="18" y="194" width="8" height="8" transform="rotate(0,22,198)"/><rect x="18" y="210" width="8" height="8" transform="rotate(0,22,214)"/><rect x="26" y="66" width="8" height="8" transform="rotate(0,30,70)"/><rect x="26" y="98" width="8" height="8" transform="rotate(0,30,102)"/><rect x="26" y="146" width="8" height="8" transform="rotate(0,30,150)"/><rect x="26" y="154" width="8" height="8" transform="rotate(0,30,158)"/><rect x="26" y="178" width="8" height="8" transform="rotate(0,30,182)"/><rect x="26" y="186" width="8" height="8" transform="rotate(0,30,190)"/><rect x="26" y="194" width="8" height="8" transform="rotate(0,30,198)"/><rect x="34" y="66" width="8" height="8" transform="rotate(0,38,70)"/><rect x="34" y="82" width="8" height="8" transform="rotate(0,38,86)"/><rect x="34" y="106" width="8" height="8" transform="rotate(0,38,110)"/><rect x="34" y="122" width="8" height="8" transform="rotate(0,38,126)"/><rect x="34" y="130" width="8" height="8" transform="rotate(0,38,134)"/><rect x="34" y="138" width="8" height="8" transform="rotate(0,38,142)"/><rect x="34" y="162" width="8" height="8" transform="rotate(0,38,166)"/><rect x="34" y="170" width="8" height="8" transform="rotate(0,38,174)"/><rect x="34" y="178" width="8" height="8" transform="rotate(0,38,182)"/><rect x="34" y="186" width="8" height="8" transform="rotate(0,38,190)"/><rect x="34" y="194" width="8" height="8" transform="rotate(0,38,198)"/><rect x="34" y="218" width="8" height="8" transform="rotate(0,38,222)"/><rect x="34" y="226" width="8" height="8" transform="rotate(0,38,230)"/><rect x="42" y="74" width="8" height="8" transform="rotate(0,46,78)"/><rect x="42" y="82" width="8" height="8" transform="rotate(0,46,86)"/><rect x="42" y="106" width="8" height="8" transform="rotate(0,46,110)"/><rect x="42" y="130" width="8" height="8" transform="rotate(0,46,134)"/><rect x="42" y="146" width="8" height="8" transform="rotate(0,46,150)"/><rect x="42" y="162" width="8" height="8" transform="rotate(0,46,166)"/><rect x="42" y="178" width="8" height="8" transform="rotate(0,46,182)"/><rect x="42" y="186" width="8" height="8" transform="rotate(0,46,190)"/><rect x="42" y="202" width="8" height="8" transform="rotate(0,46,206)"/><rect x="42" y="218" width="8" height="8" transform="rotate(0,46,222)"/><rect x="42" y="226" width="8" height="8" transform="rotate(0,46,230)"/><rect x="50" y="66" width="8" height="8" transform="rotate(0,54,70)"/><rect x="50" y="82" width="8" height="8" transform="rotate(0,54,86)"/><rect x="50" y="98" width="8" height="8" transform="rotate(0,54,102)"/><rect x="50" y="114" width="8" height="8" transform="rotate(0,54,118)"/><rect x="50" y="130" width="8" height="8" transform="rotate(0,54,134)"/><rect x="50" y="146" width="8" height="8" transform="rotate(0,54,150)"/><rect x="50" y="162" width="8" height="8" transform="rotate(0,54,166)"/><rect x="50" y="178" width="8" height="8" transform="rotate(0,54,182)"/><rect x="50" y="194" width="8" height="8" transform="rotate(0,54,198)"/><rect x="50" y="210" width="8" height="8" transform="rotate(0,54,214)"/><rect x="50" y="226" width="8" height="8" transform="rotate(0,54,230)"/><rect x="58" y="66" width="8" height="8" transform="rotate(0,62,70)"/><rect x="58" y="90" width="8" height="8" transform="rotate(0,62,94)"/><rect x="58" y="98" width="8" height="8" transform="rotate(0,62,102)"/><rect x="58" y="114" width="8" height="8" transform="rotate(0,62,118)"/><rect x="58" y="138" width="8" height="8" transform="rotate(0,62,142)"/><rect x="58" y="154" width="8" height="8" transform="rotate(0,62,158)"/><rect x="58" y="170" width="8" height="8" transform="rotate(0,62,174)"/><rect x="58" y="178" width="8" height="8" transform="rotate(0,62,182)"/><rect x="58" y="202" width="8" height="8" transform="rotate(0,62,206)"/><rect x="58" y="210" width="8" height="8" transform="rotate(0,62,214)"/><rect x="58" y="226" width="8" height="8" transform="rotate(0,62,230)"/><rect x="66" y="10" width="8" height="8" transform="rotate(0,70,14)"/><rect x="66" y="18" width="8" height="8" transform="rotate(0,70,22)"/><rect x="66" y="34" width="8" height="8" transform="rotate(0,70,38)"/><rect x="66" y="50" width="8" height="8" transform="rotate(0,70,54)"/><rect x="66" y="58" width="8" height="8" transform="rotate(0,70,62)"/><rect x="66" y="74" width="8" height="8" transform="rotate(0,70,78)"/><rect x="66" y="106" width="8" height="8" transform="rotate(0,70,110)"/><rect x="66" y="114" width="8" height="8" transform="rotate(0,70,118)"/><rect x="66" y="138" width="8" height="8" transform="rotate(0,70,142)"/><rect x="66" y="162" width="8" height="8" transform="rotate(0,70,166)"/><rect x="66" y="170" width="8" height="8" transform="rotate(0,70,174)"/><rect x="66" y="194" width="8" height="8" transform="rotate(0,70,198)"/><rect x="66" y="210" width="8" height="8" transform="rotate(0,70,214)"/><rect x="66" y="218" width="8" height="8" transform="rotate(0,70,222)"/><rect x="66" y="226" width="8" height="8" transform="rotate(0,70,230)"/><rect x="66" y="242" width="8" height="8" transform="rotate(0,70,246)"/><rect x="66" y="258" width="8" height="8" transform="rotate(0,70,262)"/><rect x="66" y="266" width="8" height="8" transform="rotate(0,70,270)"/><rect x="66" y="274" width="8" height="8" transform="rotate(0,70,278)"/><rect x="66" y="282" width="8" height="8" transform="rotate(0,70,286)"/><rect x="66" y="290" width="8" height="8" transform="rotate(0,70,294)"/><rect x="74" y="2" width="8" height="8" transform="rotate(0,78,6)"/><rect x="74" y="18" width="8" height="8" transform="rotate(0,78,22)"/><rect x="74" y="34" width="8" height="8" transform="rotate(0,78,38)"/><rect x="74" y="42" width="8" height="8" transform="rotate(0,78,46)"/><rect x="74" y="66" width="8" height="8" transform="rotate(0,78,70)"/><rect x="74" y="74" width="8" height="8" transform="rotate(0,78,78)"/><rect x="74" y="82" width="8" height="8" transform="rotate(0,78,86)"/><rect x="74" y="98" width="8" height="8" transform="rotate(0,78,102)"/><rect x="74" y="106" width="8" height="8" transform="rotate(0,78,110)"/><rect x="74" y="130" width="8" height="8" transform="rotate(0,78,134)"/><rect x="74" y="162" width="8" height="8" transform="rotate(0,78,166)"/><rect x="74" y="170" width="8" height="8" transform="rotate(0,78,174)"/><rect x="74" y="178" width="8" height="8" transform="rotate(0,78,182)"/><rect x="74" y="210" width="8" height="8" transform="rotate(0,78,214)"/><rect x="74" y="218" width="8" height="8" transform="rotate(0,78,222)"/><rect x="74" y="226" width="8" height="8" transform="rotate(0,78,230)"/><rect x="74" y="234" width="8" height="8" transform="rotate(0,78,238)"/><rect x="74" y="242" width="8" height="8" transform="rotate(0,78,246)"/><rect x="74" y="266" width="8" height="8" transform="rotate(0,78,270)"/><rect x="74" y="274" width="8" height="8" transform="rotate(0,78,278)"/><rect x="74" y="290" width="8" height="8" transform="rotate(0,78,294)"/><rect x="82" y="10" width="8" height="8" transform="rotate(0,86,14)"/><rect x="82" y="26" width="8" height="8" transform="rotate(0,86,30)"/><rect x="82" y="42" width="8" height="8" transform="rotate(0,86,46)"/><rect x="82" y="50" width="8" height="8" transform="rotate(0,86,54)"/><rect x="82" y="66" width="8" height="8" transform="rotate(0,86,70)"/><rect x="82" y="90" width="8" height="8" transform="rotate(0,86,94)"/><rect x="82" y="130" width="8" height="8" transform="rotate(0,86,134)"/><rect x="82" y="138" width="8" height="8" transform="rotate(0,86,142)"/><rect x="82" y="146" width="8" height="8" transform="rotate(0,86,150)"/><rect x="82" y="154" width="8" height="8" transform="rotate(0,86,158)"/><rect x="82" y="162" width="8" height="8" transform="rotate(0,86,166)"/><rect x="82" y="202" width="8" height="8" transform="rotate(0,86,206)"/><rect x="82" y="218" width="8" height="8" transform="rotate(0,86,222)"/><rect x="82" y="226" width="8" height="8" transform="rotate(0,86,230)"/><rect x="82" y="242" width="8" height="8" transform="rotate(0,86,246)"/><rect x="82" y="266" width="8" height="8" transform="rotate(0,86,270)"/><rect x="82" y="274" width="8" height="8" transform="rotate(0,86,278)"/><rect x="82" y="282" width="8" height="8" transform="rotate(0,86,286)"/><rect x="82" y="290" width="8" height="8" transform="rotate(0,86,294)"/><rect x="90" y="2" width="8" height="8" transform="rotate(0,94,6)"/><rect x="90" y="10" width="8" height="8" transform="rotate(0,94,14)"/><rect x="90" y="18" width="8" height="8" transform="rotate(0,94,22)"/><rect x="90" y="26" width="8" height="8" transform="rotate(0,94,30)"/><rect x="90" y="34" width="8" height="8" transform="rotate(0,94,38)"/><rect x="90" y="42" width="8" height="8" transform="rotate(0,94,46)"/><rect x="90" y="66" width="8" height="8" transform="rotate(0,94,70)"/><rect x="90" y="74" width="8" height="8" transform="rotate(0,94,78)"/><rect x="90" y="98" width="8" height="8" transform="rotate(0,94,102)"/><rect x="90" y="122" width="8" height="8" transform="rotate(0,94,126)"/><rect x="90" y="130" width="8" height="8" transform="rotate(0,94,134)"/><rect x="90" y="138" width="8" height="8" transform="rotate(0,94,142)"/><rect x="90" y="146" width="8" height="8" transform="rotate(0,94,150)"/><rect x="90" y="154" width="8" height="8" transform="rotate(0,94,158)"/><rect x="90" y="162" width="8" height="8" transform="rotate(0,94,166)"/><rect x="90" y="170" width="8" height="8" transform="rotate(0,94,174)"/><rect x="90" y="186" width="8" height="8" transform="rotate(0,94,190)"/><rect x="90" y="194" width="8" height="8" transform="rotate(0,94,198)"/><rect x="90" y="202" width="8" height="8" transform="rotate(0,94,206)"/><rect x="90" y="210" width="8" height="8" transform="rotate(0,94,214)"/><rect x="90" y="226" width="8" height="8" transform="rotate(0,94,230)"/><rect x="90" y="234" width="8" height="8" transform="rotate(0,94,238)"/><rect x="98" y="2" width="8" height="8" transform="rotate(0,102,6)"/><rect x="98" y="10" width="8" height="8" transform="rotate(0,102,14)"/><rect x="98" y="18" width="8" height="8" transform="rotate(0,102,22)"/><rect x="98" y="26" width="8" height="8" transform="rotate(0,102,30)"/><rect x="98" y="42" width="8" height="8" transform="rotate(0,102,46)"/><rect x="98" y="50" width="8" height="8" transform="rotate(0,102,54)"/><rect x="98" y="74" width="8" height="8" transform="rotate(0,102,78)"/><rect x="98" y="98" width="8" height="8" transform="rotate(0,102,102)"/><rect x="98" y="106" width="8" height="8" transform="rotate(0,102,110)"/><rect x="98" y="114" width="8" height="8" transform="rotate(0,102,118)"/><rect x="98" y="154" width="8" height="8" transform="rotate(0,102,158)"/><rect x="98" y="186" width="8" height="8" transform="rotate(0,102,190)"/><rect x="98" y="194" width="8" height="8" transform="rotate(0,102,198)"/><rect x="98" y="202" width="8" height="8" transform="rotate(0,102,206)"/><rect x="98" y="218" width="8" height="8" transform="rotate(0,102,222)"/><rect x="98" y="226" width="8" height="8" transform="rotate(0,102,230)"/><rect x="98" y="234" width="8" height="8" transform="rotate(0,102,238)"/><rect x="98" y="242" width="8" height="8" transform="rotate(0,102,246)"/><rect x="98" y="290" width="8" height="8" transform="rotate(0,102,294)"/><rect x="106" y="2" width="8" height="8" transform="rotate(0,110,6)"/><rect x="106" y="10" width="8" height="8" transform="rotate(0,110,14)"/><rect x="106" y="42" width="8" height="8" transform="rotate(0,110,46)"/><rect x="106" y="66" width="8" height="8" transform="rotate(0,110,70)"/><rect x="106" y="138" width="8" height="8" transform="rotate(0,110,142)"/><rect x="106" y="154" width="8" height="8" transform="rotate(0,110,158)"/><rect x="106" y="162" width="8" height="8" transform="rotate(0,110,166)"/><rect x="106" y="178" width="8" height="8" transform="rotate(0,110,182)"/><rect x="106" y="194" width="8" height="8" transform="rotate(0,110,198)"/><rect x="106" y="226" width="8" height="8" transform="rotate(0,110,230)"/><rect x="106" y="242" width="8" height="8" transform="rotate(0,110,246)"/><rect x="106" y="250" width="8" height="8" transform="rotate(0,110,254)"/><rect x="106" y="266" width="8" height="8" transform="rotate(0,110,270)"/><rect x="106" y="274" width="8" height="8" transform="rotate(0,110,278)"/><rect x="106" y="282" width="8" height="8" transform="rotate(0,110,286)"/><rect x="106" y="290" width="8" height="8" transform="rotate(0,110,294)"/><rect x="114" y="10" width="8" height="8" transform="rotate(0,118,14)"/><rect x="114" y="18" width="8" height="8" transform="rotate(0,118,22)"/><rect x="114" y="26" width="8" height="8" transform="rotate(0,118,30)"/><rect x="114" y="34" width="8" height="8" transform="rotate(0,118,38)"/><rect x="114" y="42" width="8" height="8" transform="rotate(0,118,46)"/><rect x="114" y="50" width="8" height="8" transform="rotate(0,118,54)"/><rect x="114" y="74" width="8" height="8" transform="rotate(0,118,78)"/><rect x="114" y="114" width="8" height="8" transform="rotate(0,118,118)"/><rect x="114" y="122" width="8" height="8" transform="rotate(0,118,126)"/><rect x="114" y="162" width="8" height="8" transform="rotate(0,118,166)"/><rect x="114" y="170" width="8" height="8" transform="rotate(0,118,174)"/><rect x="114" y="202" width="8" height="8" transform="rotate(0,118,206)"/><rect x="114" y="226" width="8" height="8" transform="rotate(0,118,230)"/><rect x="114" y="250" width="8" height="8" transform="rotate(0,118,254)"/><rect x="114" y="274" width="8" height="8" transform="rotate(0,118,278)"/><rect x="114" y="282" width="8" height="8" transform="rotate(0,118,286)"/><rect x="114" y="290" width="8" height="8" transform="rotate(0,118,294)"/><rect x="122" y="18" width="8" height="8" transform="rotate(0,126,22)"/><rect x="122" y="26" width="8" height="8" transform="rotate(0,126,30)"/><rect x="122" y="66" width="8" height="8" transform="rotate(0,126,70)"/><rect x="122" y="82" width="8" height="8" transform="rotate(0,126,86)"/><rect x="122" y="106" width="8" height="8" transform="rotate(0,126,110)"/><rect x="122" y="122" width="8" height="8" transform="rotate(0,126,126)"/><rect x="122" y="130" width="8" height="8" transform="rotate(0,126,134)"/><rect x="122" y="138" width="8" height="8" transform="rotate(0,126,142)"/><rect x="122" y="146" width="8" height="8" transform="rotate(0,126,150)"/><rect x="122" y="154" width="8" height="8" transform="rotate(0,126,158)"/><rect x="122" y="162" width="8" height="8" transform="rotate(0,126,166)"/><rect x="122" y="186" width="8" height="8" transform="rotate(0,126,190)"/><rect x="122" y="202" width="8" height="8" transform="rotate(0,126,206)"/><rect x="122" y="226" width="8" height="8" transform="rotate(0,126,230)"/><rect x="122" y="250" width="8" height="8" transform="rotate(0,126,254)"/><rect x="130" y="10" width="8" height="8" transform="rotate(0,134,14)"/><rect x="130" y="26" width="8" height="8" transform="rotate(0,134,30)"/><rect x="130" y="34" width="8" height="8" transform="rotate(0,134,38)"/><rect x="130" y="50" width="8" height="8" transform="rotate(0,134,54)"/><rect x="130" y="58" width="8" height="8" transform="rotate(0,134,62)"/><rect x="130" y="74" width="8" height="8" transform="rotate(0,134,78)"/><rect x="130" y="82" width="8" height="8" transform="rotate(0,134,86)"/><rect x="130" y="90" width="8" height="8" transform="rotate(0,134,94)"/><rect x="130" y="106" width="8" height="8" transform="rotate(0,134,110)"/><rect x="130" y="114" width="8" height="8" transform="rotate(0,134,118)"/><rect x="130" y="122" width="8" height="8" transform="rotate(0,134,126)"/><rect x="130" y="130" width="8" height="8" transform="rotate(0,134,134)"/><rect x="130" y="138" width="8" height="8" transform="rotate(0,134,142)"/><rect x="130" y="146" width="8" height="8" transform="rotate(0,134,150)"/><rect x="130" y="154" width="8" height="8" transform="rotate(0,134,158)"/><rect x="130" y="162" width="8" height="8" transform="rotate(0,134,166)"/><rect x="130" y="194" width="8" height="8" transform="rotate(0,134,198)"/><rect x="130" y="202" width="8" height="8" transform="rotate(0,134,206)"/><rect x="130" y="226" width="8" height="8" transform="rotate(0,134,230)"/><rect x="130" y="234" width="8" height="8" transform="rotate(0,134,238)"/><rect x="130" y="242" width="8" height="8" transform="rotate(0,134,246)"/><rect x="130" y="266" width="8" height="8" transform="rotate(0,134,270)"/><rect x="130" y="282" width="8" height="8" transform="rotate(0,134,286)"/><rect x="138" y="10" width="8" height="8" transform="rotate(0,142,14)"/><rect x="138" y="26" width="8" height="8" transform="rotate(0,142,30)"/><rect x="138" y="34" width="8" height="8" transform="rotate(0,142,38)"/><rect x="138" y="82" width="8" height="8" transform="rotate(0,142,86)"/><rect x="138" y="90" width="8" height="8" transform="rotate(0,142,94)"/><rect x="138" y="130" width="8" height="8" transform="rotate(0,142,134)"/><rect x="138" y="146" width="8" height="8" transform="rotate(0,142,150)"/><rect x="138" y="154" width="8" height="8" transform="rotate(0,142,158)"/><rect x="138" y="170" width="8" height="8" transform="rotate(0,142,174)"/><rect x="138" y="186" width="8" height="8" transform="rotate(0,142,190)"/><rect x="138" y="194" width="8" height="8" transform="rotate(0,142,198)"/><rect x="138" y="226" width="8" height="8" transform="rotate(0,142,230)"/><rect x="138" y="242" width="8" height="8" transform="rotate(0,142,246)"/><rect x="138" y="266" width="8" height="8" transform="rotate(0,142,270)"/><rect x="138" y="282" width="8" height="8" transform="rotate(0,142,286)"/><rect x="138" y="290" width="8" height="8" transform="rotate(0,142,294)"/><rect x="146" y="2" width="8" height="8" transform="rotate(0,150,6)"/><rect x="146" y="10" width="8" height="8" transform="rotate(0,150,14)"/><rect x="146" y="34" width="8" height="8" transform="rotate(0,150,38)"/><rect x="146" y="42" width="8" height="8" transform="rotate(0,150,46)"/><rect x="146" y="50" width="8" height="8" transform="rotate(0,150,54)"/><rect x="146" y="58" width="8" height="8" transform="rotate(0,150,62)"/><rect x="146" y="98" width="8" height="8" transform="rotate(0,150,102)"/><rect x="146" y="106" width="8" height="8" transform="rotate(0,150,110)"/><rect x="146" y="114" width="8" height="8" transform="rotate(0,150,118)"/><rect x="146" y="122" width="8" height="8" transform="rotate(0,150,126)"/><rect x="146" y="138" width="8" height="8" transform="rotate(0,150,142)"/><rect x="146" y="162" width="8" height="8" transform="rotate(0,150,166)"/><rect x="146" y="170" width="8" height="8" transform="rotate(0,150,174)"/><rect x="146" y="186" width="8" height="8" transform="rotate(0,150,190)"/><rect x="146" y="194" width="8" height="8" transform="rotate(0,150,198)"/><rect x="146" y="210" width="8" height="8" transform="rotate(0,150,214)"/><rect x="146" y="234" width="8" height="8" transform="rotate(0,150,238)"/><rect x="146" y="258" width="8" height="8" transform="rotate(0,150,262)"/><rect x="146" y="266" width="8" height="8" transform="rotate(0,150,270)"/><rect x="146" y="282" width="8" height="8" transform="rotate(0,150,286)"/><rect x="146" y="290" width="8" height="8" transform="rotate(0,150,294)"/><rect x="154" y="2" width="8" height="8" transform="rotate(0,158,6)"/><rect x="154" y="10" width="8" height="8" transform="rotate(0,158,14)"/><rect x="154" y="18" width="8" height="8" transform="rotate(0,158,22)"/><rect x="154" y="34" width="8" height="8" transform="rotate(0,158,38)"/><rect x="154" y="42" width="8" height="8" transform="rotate(0,158,46)"/><rect x="154" y="74" width="8" height="8" transform="rotate(0,158,78)"/><rect x="154" y="82" width="8" height="8" transform="rotate(0,158,86)"/><rect x="154" y="98" width="8" height="8" transform="rotate(0,158,102)"/><rect x="154" y="106" width="8" height="8" transform="rotate(0,158,110)"/><rect x="154" y="122" width="8" height="8" transform="rotate(0,158,126)"/><rect x="154" y="138" width="8" height="8" transform="rotate(0,158,142)"/><rect x="154" y="162" width="8" height="8" transform="rotate(0,158,166)"/><rect x="154" y="170" width="8" height="8" transform="rotate(0,158,174)"/><rect x="154" y="178" width="8" height="8" transform="rotate(0,158,182)"/><rect x="154" y="194" width="8" height="8" transform="rotate(0,158,198)"/><rect x="154" y="202" width="8" height="8" transform="rotate(0,158,206)"/><rect x="154" y="210" width="8" height="8" transform="rotate(0,158,214)"/><rect x="154" y="218" width="8" height="8" transform="rotate(0,158,222)"/><rect x="154" y="242" width="8" height="8" transform="rotate(0,158,246)"/><rect x="154" y="250" width="8" height="8" transform="rotate(0,158,254)"/><rect x="154" y="290" width="8" height="8" transform="rotate(0,158,294)"/><rect x="162" y="10" width="8" height="8" transform="rotate(0,166,14)"/><rect x="162" y="18" width="8" height="8" transform="rotate(0,166,22)"/><rect x="162" y="42" width="8" height="8" transform="rotate(0,166,46)"/><rect x="162" y="50" width="8" height="8" transform="rotate(0,166,54)"/><rect x="162" y="98" width="8" height="8" transform="rotate(0,166,102)"/><rect x="162" y="106" width="8" height="8" transform="rotate(0,166,110)"/><rect x="162" y="122" width="8" height="8" transform="rotate(0,166,126)"/><rect x="162" y="130" width="8" height="8" transform="rotate(0,166,134)"/><rect x="162" y="138" width="8" height="8" transform="rotate(0,166,142)"/><rect x="162" y="162" width="8" height="8" transform="rotate(0,166,166)"/><rect x="162" y="170" width="8" height="8" transform="rotate(0,166,174)"/><rect x="162" y="186" width="8" height="8" transform="rotate(0,166,190)"/><rect x="162" y="202" width="8" height="8" transform="rotate(0,166,206)"/><rect x="162" y="226" width="8" height="8" transform="rotate(0,166,230)"/><rect x="162" y="234" width="8" height="8" transform="rotate(0,166,238)"/><rect x="162" y="242" width="8" height="8" transform="rotate(0,166,246)"/><rect x="162" y="250" width="8" height="8" transform="rotate(0,166,254)"/><rect x="162" y="290" width="8" height="8" transform="rotate(0,166,294)"/><rect x="170" y="18" width="8" height="8" transform="rotate(0,174,22)"/><rect x="170" y="82" width="8" height="8" transform="rotate(0,174,86)"/><rect x="170" y="90" width="8" height="8" transform="rotate(0,174,94)"/><rect x="170" y="146" width="8" height="8" transform="rotate(0,174,150)"/><rect x="170" y="170" width="8" height="8" transform="rotate(0,174,174)"/><rect x="170" y="234" width="8" height="8" transform="rotate(0,174,238)"/><rect x="170" y="242" width="8" height="8" transform="rotate(0,174,246)"/><rect x="170" y="266" width="8" height="8" transform="rotate(0,174,270)"/><rect x="170" y="282" width="8" height="8" transform="rotate(0,174,286)"/><rect x="170" y="290" width="8" height="8" transform="rotate(0,174,294)"/><rect x="178" y="10" width="8" height="8" transform="rotate(0,182,14)"/><rect x="178" y="18" width="8" height="8" transform="rotate(0,182,22)"/><rect x="178" y="42" width="8" height="8" transform="rotate(0,182,46)"/><rect x="178" y="50" width="8" height="8" transform="rotate(0,182,54)"/><rect x="178" y="66" width="8" height="8" transform="rotate(0,182,70)"/><rect x="178" y="74" width="8" height="8" transform="rotate(0,182,78)"/><rect x="178" y="106" width="8" height="8" transform="rotate(0,182,110)"/><rect x="178" y="114" width="8" height="8" transform="rotate(0,182,118)"/><rect x="178" y="162" width="8" height="8" transform="rotate(0,182,166)"/><rect x="178" y="170" width="8" height="8" transform="rotate(0,182,174)"/><rect x="178" y="202" width="8" height="8" transform="rotate(0,182,206)"/><rect x="178" y="226" width="8" height="8" transform="rotate(0,182,230)"/><rect x="178" y="242" width="8" height="8" transform="rotate(0,182,246)"/><rect x="178" y="258" width="8" height="8" transform="rotate(0,182,262)"/><rect x="178" y="282" width="8" height="8" transform="rotate(0,182,286)"/><rect x="178" y="290" width="8" height="8" transform="rotate(0,182,294)"/><rect x="186" y="10" width="8" height="8" transform="rotate(0,190,14)"/><rect x="186" y="34" width="8" height="8" transform="rotate(0,190,38)"/><rect x="186" y="42" width="8" height="8" transform="rotate(0,190,46)"/><rect x="186" y="66" width="8" height="8" transform="rotate(0,190,70)"/><rect x="186" y="90" width="8" height="8" transform="rotate(0,190,94)"/><rect x="186" y="106" width="8" height="8" transform="rotate(0,190,110)"/><rect x="186" y="114" width="8" height="8" transform="rotate(0,190,118)"/><rect x="186" y="122" width="8" height="8" transform="rotate(0,190,126)"/><rect x="186" y="146" width="8" height="8" transform="rotate(0,190,150)"/><rect x="186" y="170" width="8" height="8" transform="rotate(0,190,174)"/><rect x="186" y="186" width="8" height="8" transform="rotate(0,190,190)"/><rect x="186" y="194" width="8" height="8" transform="rotate(0,190,198)"/><rect x="186" y="242" width="8" height="8" transform="rotate(0,190,246)"/><rect x="186" y="282" width="8" height="8" transform="rotate(0,190,286)"/><rect x="194" y="2" width="8" height="8" transform="rotate(0,198,6)"/><rect x="194" y="26" width="8" height="8" transform="rotate(0,198,30)"/><rect x="194" y="50" width="8" height="8" transform="rotate(0,198,54)"/><rect x="194" y="58" width="8" height="8" transform="rotate(0,198,62)"/><rect x="194" y="66" width="8" height="8" transform="rotate(0,198,70)"/><rect x="194" y="74" width="8" height="8" transform="rotate(0,198,78)"/><rect x="194" y="90" width="8" height="8" transform="rotate(0,198,94)"/><rect x="194" y="122" width="8" height="8" transform="rotate(0,198,126)"/><rect x="194" y="138" width="8" height="8" transform="rotate(0,198,142)"/><rect x="194" y="154" width="8" height="8" transform="rotate(0,198,158)"/><rect x="194" y="170" width="8" height="8" transform="rotate(0,198,174)"/><rect x="194" y="194" width="8" height="8" transform="rotate(0,198,198)"/><rect x="194" y="218" width="8" height="8" transform="rotate(0,198,222)"/><rect x="194" y="226" width="8" height="8" transform="rotate(0,198,230)"/><rect x="194" y="234" width="8" height="8" transform="rotate(0,198,238)"/><rect x="194" y="242" width="8" height="8" transform="rotate(0,198,246)"/><rect x="194" y="250" width="8" height="8" transform="rotate(0,198,254)"/><rect x="202" y="10" width="8" height="8" transform="rotate(0,206,14)"/><rect x="202" y="18" width="8" height="8" transform="rotate(0,206,22)"/><rect x="202" y="34" width="8" height="8" transform="rotate(0,206,38)"/><rect x="202" y="42" width="8" height="8" transform="rotate(0,206,46)"/><rect x="202" y="58" width="8" height="8" transform="rotate(0,206,62)"/><rect x="202" y="74" width="8" height="8" transform="rotate(0,206,78)"/><rect x="202" y="82" width="8" height="8" transform="rotate(0,206,86)"/><rect x="202" y="90" width="8" height="8" transform="rotate(0,206,94)"/><rect x="202" y="98" width="8" height="8" transform="rotate(0,206,102)"/><rect x="202" y="114" width="8" height="8" transform="rotate(0,206,118)"/><rect x="202" y="122" width="8" height="8" transform="rotate(0,206,126)"/><rect x="202" y="130" width="8" height="8" transform="rotate(0,206,134)"/><rect x="202" y="154" width="8" height="8" transform="rotate(0,206,158)"/><rect x="202" y="194" width="8" height="8" transform="rotate(0,206,198)"/><rect x="202" y="202" width="8" height="8" transform="rotate(0,206,206)"/><rect x="202" y="218" width="8" height="8" transform="rotate(0,206,222)"/><rect x="202" y="234" width="8" height="8" transform="rotate(0,206,238)"/><rect x="202" y="242" width="8" height="8" transform="rotate(0,206,246)"/><rect x="202" y="274" width="8" height="8" transform="rotate(0,206,278)"/><rect x="202" y="282" width="8" height="8" transform="rotate(0,206,286)"/><rect x="202" y="290" width="8" height="8" transform="rotate(0,206,294)"/><rect x="210" y="2" width="8" height="8" transform="rotate(0,214,6)"/><rect x="210" y="26" width="8" height="8" transform="rotate(0,214,30)"/><rect x="210" y="34" width="8" height="8" transform="rotate(0,214,38)"/><rect x="210" y="42" width="8" height="8" transform="rotate(0,214,46)"/><rect x="210" y="50" width="8" height="8" transform="rotate(0,214,54)"/><rect x="210" y="66" width="8" height="8" transform="rotate(0,214,70)"/><rect x="210" y="98" width="8" height="8" transform="rotate(0,214,102)"/><rect x="210" y="106" width="8" height="8" transform="rotate(0,214,110)"/><rect x="210" y="130" width="8" height="8" transform="rotate(0,214,134)"/><rect x="210" y="162" width="8" height="8" transform="rotate(0,214,166)"/><rect x="210" y="170" width="8" height="8" transform="rotate(0,214,174)"/><rect x="210" y="210" width="8" height="8" transform="rotate(0,214,214)"/><rect x="210" y="226" width="8" height="8" transform="rotate(0,214,230)"/><rect x="210" y="242" width="8" height="8" transform="rotate(0,214,246)"/><rect x="210" y="274" width="8" height="8" transform="rotate(0,214,278)"/><rect x="210" y="282" width="8" height="8" transform="rotate(0,214,286)"/><rect x="210" y="290" width="8" height="8" transform="rotate(0,214,294)"/><rect x="218" y="10" width="8" height="8" transform="rotate(0,222,14)"/><rect x="218" y="34" width="8" height="8" transform="rotate(0,222,38)"/><rect x="218" y="42" width="8" height="8" transform="rotate(0,222,46)"/><rect x="218" y="130" width="8" height="8" transform="rotate(0,222,134)"/><rect x="218" y="138" width="8" height="8" transform="rotate(0,222,142)"/><rect x="218" y="154" width="8" height="8" transform="rotate(0,222,158)"/><rect x="218" y="170" width="8" height="8" transform="rotate(0,222,174)"/><rect x="218" y="178" width="8" height="8" transform="rotate(0,222,182)"/><rect x="218" y="194" width="8" height="8" transform="rotate(0,222,198)"/><rect x="218" y="202" width="8" height="8" transform="rotate(0,222,206)"/><rect x="218" y="210" width="8" height="8" transform="rotate(0,222,214)"/><rect x="218" y="226" width="8" height="8" transform="rotate(0,222,230)"/><rect x="218" y="242" width="8" height="8" transform="rotate(0,222,246)"/><rect x="218" y="258" width="8" height="8" transform="rotate(0,222,262)"/><rect x="218" y="266" width="8" height="8" transform="rotate(0,222,270)"/><rect x="218" y="290" width="8" height="8" transform="rotate(0,222,294)"/><rect x="226" y="2" width="8" height="8" transform="rotate(0,230,6)"/><rect x="226" y="18" width="8" height="8" transform="rotate(0,230,22)"/><rect x="226" y="42" width="8" height="8" transform="rotate(0,230,46)"/><rect x="226" y="50" width="8" height="8" transform="rotate(0,230,54)"/><rect x="226" y="82" width="8" height="8" transform="rotate(0,230,86)"/><rect x="226" y="98" width="8" height="8" transform="rotate(0,230,102)"/><rect x="226" y="114" width="8" height="8" transform="rotate(0,230,118)"/><rect x="226" y="130" width="8" height="8" transform="rotate(0,230,134)"/><rect x="226" y="138" width="8" height="8" transform="rotate(0,230,142)"/><rect x="226" y="154" width="8" height="8" transform="rotate(0,230,158)"/><rect x="226" y="162" width="8" height="8" transform="rotate(0,230,166)"/><rect x="226" y="170" width="8" height="8" transform="rotate(0,230,174)"/><rect x="226" y="186" width="8" height="8" transform="rotate(0,230,190)"/><rect x="226" y="194" width="8" height="8" transform="rotate(0,230,198)"/><rect x="226" y="202" width="8" height="8" transform="rotate(0,230,206)"/><rect x="226" y="226" width="8" height="8" transform="rotate(0,230,230)"/><rect x="226" y="234" width="8" height="8" transform="rotate(0,230,238)"/><rect x="226" y="242" width="8" height="8" transform="rotate(0,230,246)"/><rect x="226" y="250" width="8" height="8" transform="rotate(0,230,254)"/><rect x="226" y="258" width="8" height="8" transform="rotate(0,230,262)"/><rect x="226" y="290" width="8" height="8" transform="rotate(0,230,294)"/><rect x="234" y="66" width="8" height="8" transform="rotate(0,238,70)"/><rect x="234" y="82" width="8" height="8" transform="rotate(0,238,86)"/><rect x="234" y="98" width="8" height="8" transform="rotate(0,238,102)"/><rect x="234" y="130" width="8" height="8" transform="rotate(0,238,134)"/><rect x="234" y="146" width="8" height="8" transform="rotate(0,238,150)"/><rect x="234" y="154" width="8" height="8" transform="rotate(0,238,158)"/><rect x="234" y="170" width="8" height="8" transform="rotate(0,238,174)"/><rect x="234" y="178" width="8" height="8" transform="rotate(0,238,182)"/><rect x="234" y="194" width="8" height="8" transform="rotate(0,238,198)"/><rect x="234" y="202" width="8" height="8" transform="rotate(0,238,206)"/><rect x="234" y="218" width="8" height="8" transform="rotate(0,238,222)"/><rect x="234" y="226" width="8" height="8" transform="rotate(0,238,230)"/><rect x="234" y="258" width="8" height="8" transform="rotate(0,238,262)"/><rect x="234" y="282" width="8" height="8" transform="rotate(0,238,286)"/><rect x="234" y="290" width="8" height="8" transform="rotate(0,238,294)"/><rect x="242" y="66" width="8" height="8" transform="rotate(0,246,70)"/><rect x="242" y="90" width="8" height="8" transform="rotate(0,246,94)"/><rect x="242" y="106" width="8" height="8" transform="rotate(0,246,110)"/><rect x="242" y="114" width="8" height="8" transform="rotate(0,246,118)"/><rect x="242" y="122" width="8" height="8" transform="rotate(0,246,126)"/><rect x="242" y="138" width="8" height="8" transform="rotate(0,246,142)"/><rect x="242" y="178" width="8" height="8" transform="rotate(0,246,182)"/><rect x="242" y="202" width="8" height="8" transform="rotate(0,246,206)"/><rect x="242" y="210" width="8" height="8" transform="rotate(0,246,214)"/><rect x="242" y="218" width="8" height="8" transform="rotate(0,246,222)"/><rect x="242" y="226" width="8" height="8" transform="rotate(0,246,230)"/><rect x="242" y="242" width="8" height="8" transform="rotate(0,246,246)"/><rect x="242" y="258" width="8" height="8" transform="rotate(0,246,262)"/><rect x="242" y="274" width="8" height="8" transform="rotate(0,246,278)"/><rect x="242" y="282" width="8" height="8" transform="rotate(0,246,286)"/><rect x="242" y="290" width="8" height="8" transform="rotate(0,246,294)"/><rect x="250" y="74" width="8" height="8" transform="rotate(0,254,78)"/><rect x="250" y="90" width="8" height="8" transform="rotate(0,254,94)"/><rect x="250" y="98" width="8" height="8" transform="rotate(0,254,102)"/><rect x="250" y="138" width="8" height="8" transform="rotate(0,254,142)"/><rect x="250" y="162" width="8" height="8" transform="rotate(0,254,166)"/><rect x="250" y="170" width="8" height="8" transform="rotate(0,254,174)"/><rect x="250" y="178" width="8" height="8" transform="rotate(0,254,182)"/><rect x="250" y="186" width="8" height="8" transform="rotate(0,254,190)"/><rect x="250" y="194" width="8" height="8" transform="rotate(0,254,198)"/><rect x="250" y="202" width="8" height="8" transform="rotate(0,254,206)"/><rect x="250" y="210" width="8" height="8" transform="rotate(0,254,214)"/><rect x="250" y="226" width="8" height="8" transform="rotate(0,254,230)"/><rect x="250" y="258" width="8" height="8" transform="rotate(0,254,262)"/><rect x="258" y="66" width="8" height="8" transform="rotate(0,262,70)"/><rect x="258" y="90" width="8" height="8" transform="rotate(0,262,94)"/><rect x="258" y="122" width="8" height="8" transform="rotate(0,262,126)"/><rect x="258" y="130" width="8" height="8" transform="rotate(0,262,134)"/><rect x="258" y="138" width="8" height="8" transform="rotate(0,262,142)"/><rect x="258" y="154" width="8" height="8" transform="rotate(0,262,158)"/><rect x="258" y="162" width="8" height="8" transform="rotate(0,262,166)"/><rect x="258" y="178" width="8" height="8" transform="rotate(0,262,182)"/><rect x="258" y="186" width="8" height="8" transform="rotate(0,262,190)"/><rect x="258" y="202" width="8" height="8" transform="rotate(0,262,206)"/><rect x="258" y="226" width="8" height="8" transform="rotate(0,262,230)"/><rect x="258" y="234" width="8" height="8" transform="rotate(0,262,238)"/><rect x="258" y="242" width="8" height="8" transform="rotate(0,262,246)"/><rect x="258" y="250" width="8" height="8" transform="rotate(0,262,254)"/><rect x="258" y="258" width="8" height="8" transform="rotate(0,262,262)"/><rect x="258" y="266" width="8" height="8" transform="rotate(0,262,270)"/><rect x="258" y="290" width="8" height="8" transform="rotate(0,262,294)"/><rect x="266" y="82" width="8" height="8" transform="rotate(0,270,86)"/><rect x="266" y="98" width="8" height="8" transform="rotate(0,270,102)"/><rect x="266" y="114" width="8" height="8" transform="rotate(0,270,118)"/><rect x="266" y="122" width="8" height="8" transform="rotate(0,270,126)"/><rect x="266" y="130" width="8" height="8" transform="rotate(0,270,134)"/><rect x="266" y="138" width="8" height="8" transform="rotate(0,270,142)"/><rect x="266" y="154" width="8" height="8" transform="rotate(0,270,158)"/><rect x="266" y="162" width="8" height="8" transform="rotate(0,270,166)"/><rect x="266" y="170" width="8" height="8" transform="rotate(0,270,174)"/><rect x="266" y="178" width="8" height="8" transform="rotate(0,270,182)"/><rect x="266" y="186" width="8" height="8" transform="rotate(0,270,190)"/><rect x="266" y="202" width="8" height="8" transform="rotate(0,270,206)"/><rect x="266" y="234" width="8" height="8" transform="rotate(0,270,238)"/><rect x="266" y="258" width="8" height="8" transform="rotate(0,270,262)"/><rect x="266" y="266" width="8" height="8" transform="rotate(0,270,270)"/><rect x="266" y="290" width="8" height="8" transform="rotate(0,270,294)"/><rect x="274" y="66" width="8" height="8" transform="rotate(0,278,70)"/><rect x="274" y="82" width="8" height="8" transform="rotate(0,278,86)"/><rect x="274" y="114" width="8" height="8" transform="rotate(0,278,118)"/><rect x="274" y="154" width="8" height="8" transform="rotate(0,278,158)"/><rect x="274" y="162" width="8" height="8" transform="rotate(0,278,166)"/><rect x="274" y="178" width="8" height="8" transform="rotate(0,278,182)"/><rect x="274" y="202" width="8" height="8" transform="rotate(0,278,206)"/><rect x="274" y="226" width="8" height="8" transform="rotate(0,278,230)"/><rect x="274" y="234" width="8" height="8" transform="rotate(0,278,238)"/><rect x="274" y="250" width="8" height="8" transform="rotate(0,278,254)"/><rect x="274" y="258" width="8" height="8" transform="rotate(0,278,262)"/><rect x="274" y="266" width="8" height="8" transform="rotate(0,278,270)"/><rect x="274" y="274" width="8" height="8" transform="rotate(0,278,278)"/><rect x="274" y="290" width="8" height="8" transform="rotate(0,278,294)"/><rect x="282" y="66" width="8" height="8" transform="rotate(0,286,70)"/><rect x="282" y="74" width="8" height="8" transform="rotate(0,286,78)"/><rect x="282" y="82" width="8" height="8" transform="rotate(0,286,86)"/><rect x="282" y="106" width="8" height="8" transform="rotate(0,286,110)"/><rect x="282" y="114" width="8" height="8" transform="rotate(0,286,118)"/><rect x="282" y="122" width="8" height="8" transform="rotate(0,286,126)"/><rect x="282" y="130" width="8" height="8" transform="rotate(0,286,134)"/><rect x="282" y="138" width="8" height="8" transform="rotate(0,286,142)"/><rect x="282" y="162" width="8" height="8" transform="rotate(0,286,166)"/><rect x="282" y="170" width="8" height="8" transform="rotate(0,286,174)"/><rect x="282" y="186" width="8" height="8" transform="rotate(0,286,190)"/><rect x="282" y="202" width="8" height="8" transform="rotate(0,286,206)"/><rect x="282" y="218" width="8" height="8" transform="rotate(0,286,222)"/><rect x="282" y="226" width="8" height="8" transform="rotate(0,286,230)"/><rect x="282" y="250" width="8" height="8" transform="rotate(0,286,254)"/><rect x="282" y="282" width="8" height="8" transform="rotate(0,286,286)"/><rect x="290" y="90" width="8" height="8" transform="rotate(0,294,94)"/><rect x="290" y="98" width="8" height="8" transform="rotate(0,294,102)"/><rect x="290" y="122" width="8" height="8" transform="rotate(0,294,126)"/><rect x="290" y="154" width="8" height="8" transform="rotate(0,294,158)"/><rect x="290" y="162" width="8" height="8" transform="rotate(0,294,166)"/><rect x="290" y="170" width="8" height="8" transform="rotate(0,294,174)"/><rect x="290" y="202" width="8" height="8" transform="rotate(0,294,206)"/><rect x="290" y="210" width="8" height="8" transform="rotate(0,294,214)"/><rect x="290" y="218" width="8" height="8" transform="rotate(0,294,222)"/><rect x="290" y="226" width="8" height="8" transform="rotate(0,294,230)"/><rect x="290" y="242" width="8" height="8" transform="rotate(0,294,246)"/><rect x="290" y="250" width="8" height="8" transform="rotate(0,294,254)"/><rect x="290" y="258" width="8" height="8" transform="rotate(0,294,262)"/><rect x="290" y="266" width="8" height="8" transform="rotate(0,294,270)"/><rect x="290" y="282" width="8" height="8" transform="rotate(0,294,286)"/><rect x="290" y="290" width="8" height="8" transform="rotate(0,294,294)"/><path clip-rule="evenodd" d="M 2 2v 56h 56v -56zM 10 10h 40v 40h -40z" transform="rotate(0,30,30)"/><rect x="18" y="18" width="8" height="8" transform="rotate(0,22,22)"/><rect x="18" y="26" width="8" height="8" transform="rotate(0,22,30)"/><rect x="18" y="34" width="8" height="8" transform="rotate(0,22,38)"/><rect x="26" y="18" width="8" height="8" transform="rotate(0,30,22)"/><rect x="26" y="26" width="8" height="8" transform="rotate(0,30,30)"/><rect x="26" y="34" width="8" height="8" transform="rotate(0,30,38)"/><rect x="34" y="18" width="8" height="8" transform="rotate(0,38,22)"/><rect x="34" y="26" width="8" height="8" transform="rotate(0,38,30)"/><rect x="34" y="34" width="8" height="8" transform="rotate(0,38,38)"/><path clip-rule="evenodd" d="M 242 2v 56h 56v -56zM 250 10h 40v 40h -40z" transform="rotate(90,270,30)"/><rect x="258" y="18" width="8" height="8" transform="rotate(0,262,22)"/><rect x="258" y="26" width="8" height="8" transform="rotate(0,262,30)"/><rect x="258" y="34" width="8" height="8" transform="rotate(0,262,38)"/><rect x="266" y="18" width="8" height="8" transform="rotate(0,270,22)"/><rect x="266" y="26" width="8" height="8" transform="rotate(0,270,30)"/><rect x="266" y="34" width="8" height="8" transform="rotate(0,270,38)"/><rect x="274" y="18" width="8" height="8" transform="rotate(0,278,22)"/><rect x="274" y="26" width="8" height="8" transform="rotate(0,278,30)"/><rect x="274" y="34" width="8" height="8" transform="rotate(0,278,38)"/><path clip-rule="evenodd" d="M 2 242v 56h 56v -56zM 10 250h 40v 40h -40z" transform="rotate(-90,30,270)"/><rect x="18" y="258" width="8" height="8" transform="rotate(0,22,262)"/><rect x="18" y="266" width="8" height="8" transform="rotate(0,22,270)"/><rect x="18" y="274" width="8" height="8" transform="rotate(0,22,278)"/><rect x="26" y="258" width="8" height="8" transform="rotate(0,30,262)"/><rect x="26" y="266" width="8" height="8" transform="rotate(0,30,270)"/><rect x="26" y="274" width="8" height="8" transform="rotate(0,30,278)"/><rect x="34" y="258" width="8" height="8" transform="rotate(0,38,262)"/><rect x="34" y="266" width="8" height="8" transform="rotate(0,38,270)"/><rect x="34" y="274" width="8" height="8" transform="rotate(0,38,278)"/></clipPath></defs><rect x="0" y="0" height="300" width="300" clip-path="url('#clip-path-background-color')" fill="#fff"/><rect x="0" y="0" height="300" width="300" clip-path="url('#clip-path-dot-color')" fill="#000000"/></svg>