<?xml version="1.0" encoding="UTF-8"?>
<svg width="40px" height="40px" viewBox="0 0 40 40" version="1.1" xmlns="http://www.w3.org/2000/svg" xmlns:xlink="http://www.w3.org/1999/xlink">
    <title>ic-distribution</title>
    <g id="Page-1" stroke="none" stroke-width="1" fill="none" fill-rule="evenodd">
        <g id="Desktop" transform="translate(-492.000000, -2489.000000)" stroke="#F2C158" stroke-width="2">
            <g id="Group-29" transform="translate(42.000000, 2448.000000)">
                <g id="Group-27" transform="translate(320.000000, 0.000000)">
                    <g id="Group-11" transform="translate(80.000000, 41.000000)">
                        <g id="ic-distribution" transform="translate(50.000000, 0.000000)">
                            <path d="M10.6666667,1 L7.56755977,1 L2.90210396,5.66666667 L10.6666667,5.66666667 L10.6666667,1 Z" id="Fill-3237"></path>
                            <path d="M14.3333333,1 L14.3333333,5.66666667 L22.097896,5.66666667 L17.4324402,1 L14.3333333,1 Z" id="Fill-3238"></path>
                            <path d="M24,9.33333333 L1,9.33333333 L1,25.6666667 L13.8444346,25.6666667 C15.9148159,21.8325259 19.1623171,18.4506774 24,16.7819844 L24,9.33333333 Z" id="Fill-3239"></path>
                            <path d="M31.0008333,19.3342568 C25.2959703,19.2876364 21.5426277,21.5058202 19.0867379,24.4503832 C15.6035351,28.6266739 14.6717459,34.1982956 14.4229081,36.8332863 C15.068396,34.9647318 16.58035,31.6914141 19.7864862,29.1688503 C22.263911,27.2196312 25.7526479,25.7051409 30.6520849,25.6678294 L31.7528523,28.2177599 L38.8727777,22.5218197 L31.0008333,17.6323291 L31.0008333,19.3342568 Z" id="Fill-3240"></path>
                        </g>
                    </g>
                </g>
            </g>
        </g>
    </g>
</svg>