<?xml version="1.0" encoding="UTF-8"?>
<svg width="50px" height="40px" viewBox="0 0 50 40" version="1.1" xmlns="http://www.w3.org/2000/svg" xmlns:xlink="http://www.w3.org/1999/xlink">
    <title>Group 6</title>
    <g id="Page-1" stroke="none" stroke-width="1" fill="none" fill-rule="evenodd">
        <g id="Desktop" transform="translate(-812.000000, -2489.000000)" stroke="#F2C158" stroke-width="2">
            <g id="Group-29" transform="translate(42.000000, 2448.000000)">
                <g id="Group-26" transform="translate(640.000000, 0.000000)">
                    <g id="Group-6" transform="translate(130.000000, 41.000000)">
                        <path d="M9.34513721,5.19183642 C9.33756852,5.1994051 9.33333333,5.20999111 9.33333333,5.22145833 L9.33333333,11.4172917 L1.04166667,11.4172917 C1.02543199,11.4172003 1.01764632,11.4214339 1.01186886,11.4271882 C1.00477746,11.4342513 1,11.4439245 1,11.4547917 C1,11.4662271 1.0036713,11.4770633 1.01129484,11.4846869 C1.01906292,11.4924549 1.03001945,11.4964583 1.04166667,11.4964583 L9.33333333,11.4964583 L9.33333333,15.638125 C9.33333333,15.6476417 9.33690915,15.6564776 9.34325348,15.6627458 C9.34622473,15.6656814 9.35022078,15.6683569 9.3552945,15.6672917 L15.6449476,15.6672917 C15.6500752,15.6684747 15.6536375,15.6650434 15.6564666,15.6622482 C15.6626858,15.6561037 15.6666667,15.6475764 15.6666667,15.638125 L15.6666667,5.22145833 C15.6666667,5.21006686 15.6620369,5.19979067 15.6545957,5.1923495 C15.6470076,5.18476143 15.6366078,5.17979167 15.625,5.17979167 L9.34513721,5.19183642 Z" id="Fill-2488"></path>
                        <path d="M39.5833333,1 C42.1795083,1 44.5334282,2.05649595 46.2384661,3.76153386 C47.9435041,5.46657178 49,7.82049167 49,10.4166667 C49,12.9671006 47.977743,15.2791731 46.3226423,16.971589 C44.3952501,18.9424354 41.6096829,20.0737597 38.5781935,19.7625318 L38.5781935,19.7625318 L42.7193623,38.4000443 L36.4055101,38.4925435 L33.1833346,24 L28.125,24 L28.0833333,19.8333333 L23.8520833,19.8333333 C22.8608028,19.8333333 21.9521266,19.4784239 21.2443322,18.8893317 C20.5428523,18.3054948 20.0377738,17.4921559 19.8450866,16.5654679 L19.8450866,16.5654679 L19.75,4.16666667 C19.75,3.29367257 20.1057627,2.50246121 20.6789893,1.92923462 C21.252491,1.35573291 22.0440359,1 22.9166667,1 L22.9166667,1 Z M32.2585956,19.8333333 L28.1666667,19.8333333 L28.1666667,23.9166667 L33.1650956,23.9166667 L32.2585956,19.8333333 Z" id="Fill-2489"></path>
                    </g>
                </g>
            </g>
        </g>
    </g>
</svg>