<?xml version="1.0" encoding="UTF-8"?>
<svg width="46px" height="40px" viewBox="0 0 46 40" version="1.1" xmlns="http://www.w3.org/2000/svg" xmlns:xlink="http://www.w3.org/1999/xlink">
    <title>ic-retail</title>
    <g id="Page-1" stroke="none" stroke-width="1" fill="none" fill-rule="evenodd">
        <g id="Desktop" transform="translate(-169.000000, -2669.000000)" stroke="#F2C158" stroke-width="2">
            <g id="Group-29" transform="translate(42.000000, 2448.000000)">
                <g id="Group-20" transform="translate(0.000000, 180.000000)">
                    <g id="Group-13" transform="translate(0.000000, 41.000000)">
                        <g id="ic-retail" transform="translate(127.000000, 0.000000)">
                            <path d="M10.3529876,1 L4.79022446,1 L1.98070066,6.61904762 L8.95103522,6.61904762 L10.3529876,1 Z" id="Fill-3049"></path>
                            <path d="M19.9474164,1 L14.379061,1 L12.9757039,6.61904762 L19.9516307,6.61904762 L19.9474164,1 Z" id="Fill-3050"></path>
                            <path d="M31.3289355,1 L23.858655,1 L23.8628693,6.61904762 L32.736507,6.61904762 L31.3289355,1 Z" id="Fill-3051"></path>
                            <path d="M35.3549216,1 L36.762493,6.61904762 L43.7335851,6.61904762 L40.9240612,1 L35.3549216,1 Z" id="Fill-3052"></path>
                            <path d="M33.2827627,10.5238095 L23.862146,10.5238095 L23.8575437,16.9930545 C24.9633575,17.5913262 26.7956798,18.1508153 28.8011649,18.0190119 C30.2682417,17.9225936 31.8313851,17.4482529 33.2766869,16.3307553 L33.2827627,10.5238095 Z" id="Fill-3053"></path>
                            <path d="M1.0001951,10.5238095 C1.01744718,12.6282334 2.17706516,14.3755156 3.75664525,15.3388824 C4.5727632,15.8366229 5.50252077,16.126304 6.44737293,16.1394489 C7.14365871,16.1491358 7.84741042,16.0071201 8.51669034,15.6885698 L8.52105862,10.5238095 L1.00018962,10.5238095 Z" id="Fill-3054"></path>
                            <path d="M44.7140975,10.5238095 L37.1904762,10.5238095 L37.1904762,15.6895433 C37.8569327,16.0094324 38.5604266,16.1523861 39.2576975,16.1432661 C40.2039581,16.1308895 41.1375401,15.8412848 41.9573524,15.3418552 C43.5352902,14.3805755 44.696882,12.6370536 44.7140919,10.5238095 Z" id="Fill-3055"></path>
                            <path d="M19.952381,10.5238095 L12.4285714,10.5238095 L12.4285714,16.3226658 C13.6282447,17.2778459 14.8968806,17.8805491 16.232758,17.9895567 C17.4331546,18.0875091 18.674658,17.7788927 19.952381,17.0194719 L19.952381,10.5238095 Z" id="Fill-3056"></path>
                            <path d="" id="Fill-3057"></path>
                            <path d="M9.92836107,19.3580295 C11.6972354,20.7785521 13.7080227,21.6793013 15.8281309,21.8720694 L15.695,21.857 L10.4761905,21.8571429 C9.93733333,21.8571429 9.44915865,22.0756754 9.09575036,22.4290837 C8.74234207,22.782492 8.52380952,23.2706667 8.52380952,23.8095238 L8.52380952,31.4285714 C8.52380952,31.9674286 8.74234207,32.4556033 9.09575036,32.8090115 C9.44915865,33.1624198 9.93733333,33.3809524 10.4761905,33.3809524 L21.9047619,33.3809524 C22.443619,33.3809524 22.9317937,33.1624198 23.285202,32.8090115 C23.6386103,32.4556033 23.8571429,31.9674286 23.8571429,31.4285714 L23.8571429,23.8095238 C23.8571429,23.2706667 23.6386103,22.782492 23.285202,22.4290837 C22.9317937,22.0756754 22.443619,21.8571429 21.9047619,21.8571429 L17.6816601,21.8591806 C19.0710937,21.7129597 20.4945534,21.2539154 21.919176,20.4198979 C23.7239912,21.4163543 26.3840538,22.1254693 29.1949476,21.904747 L29.0639889,21.9116426 C28.709657,21.997239 28.3929161,22.179537 28.1433694,22.4290837 C27.7899611,22.782492 27.5714286,23.2706667 27.5714286,23.8095238 L27.5714286,37.1428571 C27.5714286,37.6817143 27.7899611,38.169889 28.1433694,38.5232973 C28.3600683,38.7399962 28.6274361,38.9059851 28.9260885,39.0019779 L4.80952381,39 L4.80952381,19.846072 C6.65783981,20.245526 8.35994671,20.051511 9.92836107,19.3580295 Z M35.7839804,19.3554041 C37.4362372,20.0879718 39.1490657,20.2252328 40.9047619,19.8459942 L40.9047619,19.8459942 L40.9047619,39 L35.8353367,39.002132 C36.1341824,38.9061627 36.4017205,38.7401122 36.6185354,38.5232973 C36.9719436,38.169889 37.1904762,37.6817143 37.1904762,37.1428571 L37.1904762,23.8095238 C37.1904762,23.2706667 36.9719436,22.782492 36.6185354,22.4290837 C36.2651271,22.0756754 35.7769524,21.8571429 35.2380952,21.8571429 L29.6724995,21.8584355 C31.7470641,21.6186297 33.8774021,20.8644074 35.7839804,19.3554041 Z" id="Fill-3058"></path>
                        </g>
                    </g>
                </g>
            </g>
        </g>
    </g>
</svg>